<?xml version="1.0" encoding="UTF-8"?>
<svg width="31px" height="30px" viewBox="0 0 31 30" version="1.1" xmlns="http://www.w3.org/2000/svg" xmlns:xlink="http://www.w3.org/1999/xlink">
    <!-- Generator: Sketch 46.2 (44496) - http://www.bohemiancoding.com/sketch -->
    <title>ruby_big 2</title>
    <desc>Created with Sketch.</desc>
    <defs></defs>
    <g id="Page-1" stroke="none" stroke-width="1" fill="none" fill-rule="evenodd">
        <g id="ruby_big" transform="translate(4.000000, 4.000000)" fill-rule="nonzero" fill="#839EAF">
            <path d="M6.36290323,19.6746976 C11.4082661,20.371875 16.3435484,21.0323589 21.4072581,21.7295363 C19.6826613,18.8674395 18.0131048,16.0787298 16.3252016,13.2716734 L6.36290323,19.6746976 Z M22.8199597,3.82308468 C22.3796371,4.48356855 21.9393145,5.16239919 21.4806452,5.82288306 C19.9578629,8.11622984 18.4350806,10.4095766 16.9122984,12.7029234 C16.8205645,12.8313508 16.7104839,12.9230847 16.8389113,13.1248992 C18.3066532,15.5466734 19.7743952,17.9867944 21.2237903,20.4269153 C21.4622984,20.8121976 21.6824597,21.1974798 21.9943548,21.5644153 C22.2879032,15.656754 22.5814516,9.74909274 22.875,3.84143145 C22.875,3.84143145 22.8199597,3.82308468 22.8199597,3.82308468 Z M2.74858871,11.4003024 C2.82197581,11.4736895 2.98709677,11.5103831 3.06048387,11.4553427 C4.47318548,10.7581653 5.8858871,10.0793347 7.26189516,9.32711694 C7.72056452,9.08860887 8.05080645,8.64828629 8.45443548,8.28135081 C9.73870968,7.10715726 11.0229839,5.93296371 12.3072581,4.74042339 C12.3806452,4.66703629 12.472379,4.59364919 12.5274194,4.50191532 C12.9860887,3.60292339 13.4447581,2.70393145 13.9034274,1.76824597 C13.3530242,1.56643145 12.8209677,1.34627016 12.2889113,1.16280242 C12.2155242,1.14445565 12.1054435,1.18114919 12.0320565,1.23618952 C10.7844758,1.93336694 9.53689516,2.59385081 8.32600806,3.34606855 C7.72056452,3.73135081 7.24354839,4.28175403 6.71149194,4.75877016 C5.84919355,5.54768145 5.00524194,6.31824597 4.16129032,7.12550403 C3.94112903,7.34566532 3.73931452,7.58417339 3.55584677,7.84102823 C2.98709677,8.68497984 2.41834677,9.52893145 1.83125,10.4095766 C2.12479839,10.7765121 2.41834677,11.106754 2.74858871,11.4003024 Z M7.90403226,10.2444556 C7.20685484,13.2166331 6.50967742,16.1521169 5.77580645,19.1976815 C9.1516129,17.0144153 12.4540323,14.8861895 15.7381048,12.7763105 C13.1328629,11.9507056 10.527621,11.106754 7.90403226,10.2444556 Z M21.9576613,3.85977823 C19.0955645,4.33679435 16.3068548,4.79546371 13.4814516,5.27247984 C14.4354839,7.62086694 15.3895161,9.89586694 16.3618952,12.2626008 C18.2332661,9.43719758 20.0679435,6.68518145 21.9576613,3.85977823 Z M8.0141129,9.6390121 C10.5826613,10.4646169 13.1145161,11.2902218 15.7014113,12.1341734 C14.747379,9.78578629 13.8116935,7.52913306 12.8576613,5.21743952 C11.2431452,6.70352823 9.64697581,8.15292339 8.0141129,9.6390121 Z M2.84032258,13.1248992 C1.92298387,15.3081653 1.04233871,17.4180444 0.143346774,19.5462702 C1.86794355,19.4912298 3.5375,19.4545363 5.26209677,19.399496 C4.47318548,17.3263105 3.66592742,15.2714718 2.84032258,13.1248992 Z M5.33548387,17.9134073 L5.39052419,17.8950605 C6.01431452,15.3448589 6.63810484,12.7946573 7.26189516,10.134375 C5.86754032,10.868246 4.52822581,11.5654234 3.15221774,12.2626008 C3.86774194,14.115625 4.6016129,16.0236895 5.33548387,17.9134073 Z M20.9302419,3.43780242 C20.1046371,3.21764113 19.297379,2.99747984 18.4717742,2.79566532 C17.2975806,2.48377016 16.1233871,2.171875 14.9491935,1.85997984 C14.8024194,1.82328629 14.6923387,1.78659274 14.6006048,1.97006048 C14.178629,2.8140121 13.7566532,3.65796371 13.3346774,4.5202621 C13.3163306,4.53860887 13.3163306,4.57530242 13.3163306,4.64868952 C15.8665323,4.26340726 18.3983871,3.878125 20.9302419,3.49284274 C20.9118952,3.49284274 20.9302419,3.43780242 20.9302419,3.43780242 Z M16.1784274,1.51139113 L22.8383065,3.36441532 C22.4530242,2.28195565 22.1044355,1.27288306 21.7375,0.227116935 L16.1784274,1.45635081 C16.1784274,1.43800403 16.1784274,1.51139113 16.1784274,1.51139113 Z M5.90423387,20.1700605 C5.07862903,20.0783266 4.23467742,20.1700605 3.39072581,20.1700605 C2.69354839,20.1884073 2.01471774,20.206754 1.3358871,20.2251008 C1.2625,20.2251008 1.1891129,20.2434476 1.11572581,20.3168347 C6.80322581,20.8488911 12.4907258,21.3626008 18.1782258,21.8946573 L18.1965726,21.8212702 C16.3802419,21.5644153 14.5455645,21.3259073 12.7292339,21.0690524 C10.4542339,20.775504 8.17923387,20.4269153 5.90423387,20.1700605 Z M0.271774194,17.6015121 C1.00564516,15.8952621 1.73951613,14.2073589 2.4733871,12.5011089 C2.54677419,12.3359879 2.54677419,12.2075605 2.4,12.0791331 C2.08810484,11.7855847 1.81290323,11.4736895 1.46431452,11.1251008 C1.00564516,13.3634073 0.565322581,15.5466734 0.125,17.7482863 L0.180040323,17.7666331 C0.198387097,17.7115927 0.235080645,17.6565524 0.271774194,17.6015121 Z M14.7106855,1.05272177 C15.9399194,0.740826613 17.2058468,0.483971774 18.4534274,0.208770161 C18.5268145,0.190423387 18.6185484,0.172076613 18.6919355,0.135383065 L18.6735887,0.0803427419 C16.9306452,0.318850806 15.1693548,0.557358871 13.3163306,0.81421371 C13.8300403,1.034375 14.2153226,1.18114919 14.7106855,1.05272177 Z" id="Shape"></path>
        </g>
    </g>
</svg>